<?xml version="1.0" standalone="no"?>
<!DOCTYPE svg PUBLIC "-//W3C//DTD SVG 20010904//EN"
 "http://www.w3.org/TR/2001/REC-SVG-20010904/DTD/svg10.dtd">
<svg version="1.0" xmlns="http://www.w3.org/2000/svg"
 width="121.000000pt" height="45.000000pt" viewBox="0 0 121.000000 45.000000"
 preserveAspectRatio="xMidYMid meet">

<g transform="translate(0.000000,45.000000) scale(0.100000,-0.100000)"
fill="#000000" stroke="none">
<path d="M117 369 c-74 -55 -107 -85 -107 -99 0 -11 7 -20 15 -20 13 0 15 -21
15 -125 l0 -125 58 0 c52 0 62 3 87 30 22 23 26 33 17 42 -9 9 -18 6 -41 -16
-21 -20 -37 -27 -57 -24 l-29 3 -3 127 -3 127 74 56 c41 30 77 55 82 55 5 0
41 -25 82 -55 l74 -56 -3 -127 -3 -127 -34 -3 c-26 -3 -40 3 -62 24 -23 22
-32 25 -41 16 -9 -9 -5 -19 17 -42 26 -27 35 -30 92 -30 l63 0 0 125 c0 104 2
125 15 125 29 0 15 38 -25 70 -27 21 -40 40 -40 56 0 25 -25 34 -32 12 -3 -8
-22 1 -54 24 l-49 36 -108 -79z"/>
<path d="M507 272 c-21 -23 -22 -62 -3 -87 10 -14 28 -20 60 -21 46 -2 46 -2
46 32 0 32 -2 34 -32 34 -30 -1 -31 -2 -16 -14 20 -15 14 -26 -13 -26 -26 0
-36 47 -15 68 13 14 20 14 36 4 30 -19 43 -15 30 8 -14 26 -70 27 -93 2z"/>
<path d="M920 269 c0 -16 -4 -19 -20 -14 -28 9 -50 -11 -50 -45 0 -34 16 -47
58 -47 l32 0 0 64 c0 35 -4 63 -10 63 -5 0 -10 -9 -10 -21z m-6 -45 c8 -20 -1
-34 -20 -34 -8 0 -14 8 -14 18 0 33 23 44 34 16z"/>
<path d="M644 253 c-42 -29 -9 -102 39 -89 30 7 46 49 30 75 -11 18 -52 26
-69 14z m42 -28 c4 -8 3 -23 0 -32 -6 -15 -8 -15 -22 -2 -8 9 -12 23 -8 32 8
21 23 22 30 2z"/>
<path d="M752 248 c-20 -20 -14 -66 9 -79 33 -17 69 3 69 39 0 33 -16 52 -45
52 -12 0 -26 -5 -33 -12z m43 -36 c0 -31 -19 -28 -23 4 -3 18 0 25 10 22 7 -3
13 -14 13 -26z"/>
<path d="M270 185 l-44 -45 -23 22 c-21 19 -25 20 -38 7 -13 -13 -11 -19 20
-49 l35 -34 61 60 c49 49 58 63 46 72 -11 9 -22 2 -57 -33z"/>
<path d="M490 121 c0 -5 9 -11 20 -14 17 -4 20 -14 20 -57 0 -70 24 -63 28 8
2 37 7 52 18 52 7 0 14 5 14 10 0 6 -22 10 -50 10 -27 0 -50 -4 -50 -9z"/>
<path d="M1050 105 c-9 -10 -9 -19 -2 -27 6 -7 12 -26 14 -43 2 -17 10 -31 19
-33 13 -2 15 6 13 50 -1 29 -3 56 -3 61 -2 12 -28 8 -41 -8z"/>
<path d="M612 88 c-19 -19 -15 -66 7 -78 26 -13 34 -13 57 6 18 15 17 15 -13
10 -25 -4 -33 -2 -33 9 0 10 10 15 30 15 18 0 30 5 30 13 0 33 -53 50 -78 25z
m48 -18 c0 -5 -7 -10 -15 -10 -8 0 -15 5 -15 10 0 6 7 10 15 10 8 0 15 -4 15
-10z"/>
<path d="M710 48 c0 -60 23 -63 28 -4 4 48 26 43 30 -7 2 -25 8 -37 18 -37 12
0 14 11 12 47 l-3 48 -42 1 -43 1 0 -49z"/>
<path d="M831 87 c-15 -15 -14 -62 2 -74 6 -6 27 -10 45 -10 31 0 32 1 32 47
0 46 0 46 -34 47 -19 1 -39 -4 -45 -10z m53 -23 c8 -20 -1 -34 -20 -34 -8 0
-14 8 -14 18 0 33 23 44 34 16z"/>
<path d="M940 47 c0 -59 23 -61 28 -3 4 48 26 43 30 -7 4 -52 32 -51 32 1 0
51 -9 60 -53 59 l-37 -1 0 -49z"/>
<path d="M1127 94 c-16 -16 -6 -44 18 -50 14 -3 25 -10 25 -15 0 -5 -11 -7
-25 -3 -27 7 -35 -10 -9 -20 25 -10 42 -7 59 10 12 12 13 19 4 30 -6 8 -17 14
-25 14 -7 0 -16 5 -19 10 -4 7 3 8 20 4 21 -5 27 -4 23 7 -5 15 -59 25 -71 13z"/>
</g>
</svg>
